<?xml version="1.0" standalone="no"?>
<!DOCTYPE svg PUBLIC "-//W3C//DTD SVG 20010904//EN"
 "http://www.w3.org/TR/2001/REC-SVG-20010904/DTD/svg10.dtd">
<svg version="1.0" xmlns="http://www.w3.org/2000/svg"
 width="1200.000000pt" height="1200.000000pt" viewBox="0 0 1200.000000 1200.000000"
 preserveAspectRatio="xMidYMid meet">

<g transform="translate(0.000000,1200.000000) scale(0.100000,-0.100000)"
fill="#000000" stroke="none">
<path d="M5945 8801 c-16 -5 -78 -9 -137 -10 -59 0 -127 -5 -150 -11 -89 -20
-175 -36 -303 -55 -22 -4 -54 -13 -72 -21 -17 -8 -40 -14 -51 -14 -12 0 -24
-4 -27 -10 -3 -5 -19 -10 -35 -10 -16 0 -32 -4 -35 -10 -3 -5 -18 -10 -33 -10
-15 0 -36 -7 -46 -15 -11 -8 -28 -15 -38 -15 -10 0 -26 -4 -36 -9 -9 -5 -28
-13 -42 -19 -65 -26 -322 -150 -365 -175 -11 -7 -41 -27 -68 -44 -26 -18 -49
-33 -52 -33 -11 0 -200 -131 -215 -150 -3 -3 -26 -23 -52 -44 -69 -55 -305
-290 -369 -366 -30 -36 -62 -74 -71 -84 -10 -11 -18 -22 -18 -25 0 -4 -27 -42
-60 -86 -33 -44 -60 -85 -60 -92 0 -6 -3 -13 -7 -15 -9 -3 -63 -84 -63 -93 0
-3 -16 -31 -35 -61 -19 -30 -35 -58 -35 -62 0 -4 -16 -41 -36 -82 -20 -41 -41
-86 -47 -100 -5 -14 -15 -38 -22 -55 -38 -90 -76 -202 -82 -243 -3 -18 -9 -35
-14 -38 -5 -3 -9 -20 -9 -38 0 -17 -4 -36 -9 -42 -16 -16 -40 -150 -63 -349
-15 -130 -15 -500 0 -640 19 -179 27 -239 34 -251 4 -6 10 -30 13 -53 3 -23 9
-51 15 -61 5 -10 10 -32 10 -49 0 -16 4 -32 9 -35 5 -3 11 -20 14 -38 6 -37
50 -164 60 -175 4 -3 7 -16 7 -28 0 -13 7 -28 15 -35 8 -7 15 -18 15 -25 0 -7
10 -33 21 -57 12 -23 28 -56 34 -73 28 -65 41 -92 72 -142 18 -29 33 -55 33
-58 0 -3 16 -31 35 -61 19 -30 35 -57 35 -59 0 -10 113 -167 144 -200 10 -11
35 -42 56 -70 68 -88 297 -315 385 -380 22 -16 49 -37 59 -47 11 -10 23 -18
27 -18 4 0 14 -6 21 -13 36 -35 157 -120 225 -158 191 -108 327 -174 416 -203
27 -9 67 -25 90 -36 22 -11 49 -20 58 -20 10 0 20 -4 23 -9 3 -4 22 -11 43
-14 21 -4 63 -14 93 -23 140 -41 176 -49 290 -65 41 -6 91 -15 110 -20 47 -13
692 -5 791 9 42 7 89 16 104 22 14 5 41 10 60 10 19 0 37 4 40 10 3 5 22 10
41 10 19 0 42 4 52 9 29 16 119 41 146 41 14 0 28 5 31 10 3 6 15 10 26 10 10
0 27 4 37 9 42 21 94 41 107 41 8 0 15 5 15 10 0 6 7 10 15 10 8 0 23 4 33 10
9 5 67 33 127 61 61 29 133 68 162 86 29 18 55 33 59 33 4 0 22 11 40 25 18
14 37 25 42 25 6 0 12 4 14 9 2 5 17 17 34 27 30 19 144 102 154 113 3 4 23
19 45 35 61 45 267 250 353 351 42 50 89 104 104 120 16 17 31 38 34 48 3 9 9
17 13 17 4 0 20 23 36 50 16 28 33 50 37 50 4 0 8 5 8 10 0 6 16 36 35 66 19
30 35 56 35 59 0 3 15 28 33 57 18 29 38 64 44 78 6 14 22 50 36 80 14 30 36
81 51 113 14 32 26 62 26 67 0 6 4 18 9 28 22 44 53 132 58 170 3 18 9 35 14
38 5 3 9 16 9 30 0 14 5 34 10 44 6 10 12 38 15 61 3 24 10 48 14 53 5 6 12
36 15 66 17 168 26 239 35 275 14 52 14 428 0 480 -9 36 -17 96 -35 260 -3 28
-10 54 -15 60 -5 5 -9 22 -9 37 0 16 -7 45 -15 65 -8 19 -15 45 -15 56 0 11
-5 37 -12 56 -26 83 -60 177 -69 193 -5 10 -9 24 -9 32 0 8 -15 45 -34 82 -19
38 -42 87 -51 109 -10 22 -25 56 -35 75 -17 35 -27 51 -80 145 -16 28 -37 64
-46 80 -17 30 -152 215 -164 225 -3 3 -17 21 -30 40 -30 45 -353 371 -388 393
-15 9 -47 35 -72 57 -24 22 -47 40 -51 40 -3 0 -17 10 -30 21 -26 23 -184 129
-192 129 -3 0 -38 19 -79 43 -73 42 -129 70 -203 102 -22 9 -47 21 -55 26 -8
5 -22 12 -30 15 -8 3 -24 9 -35 14 -43 16 -72 28 -108 44 -21 9 -46 16 -57 16
-10 0 -22 5 -25 10 -3 6 -16 10 -28 10 -12 0 -49 10 -82 21 -83 29 -139 40
-340 68 -44 6 -91 16 -105 21 -14 5 -74 11 -135 14 -60 3 -139 8 -175 10 -36
3 -78 1 -95 -3z m-647 -1281 c87 -24 210 -84 275 -134 45 -34 510 -500 772
-773 120 -126 138 -154 128 -208 -7 -33 -57 -81 -94 -89 -65 -13 -57 -20 -608
552 -129 134 -254 254 -277 268 -119 70 -301 110 -420 93 -185 -26 -261 -136
-251 -363 7 -190 38 -248 230 -446 64 -67 117 -125 117 -129 0 -3 -34 -40 -76
-80 l-77 -74 -96 99 c-265 275 -289 304 -341 417 -62 131 -85 303 -60 437 40
208 238 401 465 450 63 14 231 3 313 -20z m1577 -1407 c49 -53 169 -178 266
-277 97 -100 198 -206 224 -236 93 -110 161 -261 190 -422 29 -165 -1 -327
-86 -459 -73 -114 -228 -222 -358 -250 -90 -19 -252 -7 -341 26 -139 51 -202
97 -380 275 -372 371 -823 835 -841 864 -23 37 -24 67 -4 106 22 42 63 70 102
70 46 0 69 -13 127 -74 27 -28 101 -105 165 -171 64 -66 204 -213 311 -325
320 -336 338 -353 421 -393 98 -49 175 -67 279 -67 156 0 244 64 286 209 12
39 15 84 12 175 -5 131 -27 217 -80 307 -14 24 -140 160 -280 302 -271 278
-289 301 -264 361 21 50 60 76 115 76 45 0 47 -2 136 -97z"/>
</g>
</svg>
